<!-- Generator: Adobe Illustrator 27.2.0, SVG Export Plug-In . SVG Version: 6.00 Build 0)  -->
<svg version="1.1" xmlns="http://www.w3.org/2000/svg" xmlns:xlink="http://www.w3.org/1999/xlink" x="0px" y="0px"
	 viewBox="0 0 841.89 595.28" style="enable-background:new 0 0 841.89 595.28;" xml:space="preserve">
<style type="text/css">
	.st0{fill:#D1D3D4;}
	.st1{fill:#D16B6B;stroke:#D97D88;stroke-width:5.6693;stroke-miterlimit:10;}
	.st2{fill:#808285;stroke:#939598;stroke-width:5.6693;stroke-miterlimit:10;}
	.st3{fill:#535889;stroke:#6F6E99;stroke-width:5.6693;stroke-miterlimit:10;}
	.st4{display:none;}
	.st5{display:inline;fill:#939598;stroke:#939598;stroke-width:5.6693;stroke-miterlimit:10;}
	.st6{fill:none;stroke:#000000;stroke-width:5.6693;stroke-miterlimit:10;}
</style>
<g id="Background" (click)="LogCords($event)">
	<rect x="28.35" y="28.35" class="st0" width="150.24" height="535.75"/>
	<rect x="589.61" y="31.18" class="st0" width="204.09" height="470.55"/>
	<rect x="467.72" y="28.35" class="st0" width="124.72" height="388.35"/>
	<rect x="385.51" y="28.35" class="st0" width="90.71" height="294.8"/>
	<rect x="175.75" y="31.18" class="st0" width="212.6" height="243.78"/>
</g>
<g id="Rooms" (click)="LogCordsRooms($event)">
	<rect x="277.8" y="181.42" class="st1" width="17.01" height="87.87"/>
	<rect x="130.39" y="181.42" class="st1" width="136.06" height="87.87"/>
	<rect x="334.49" y="181.42" class="st1" width="17.01" height="87.87"/>
	<rect x="362.83" y="181.42" class="st1" width="19.84" height="87.87"/>
	<rect x="110.55" y="476.22" class="st1" width="62.36" height="82.2"/>
	<rect x="34.02" y="476.22" class="st1" width="65.2" height="82.2"/>
	<rect x="34.02" y="240.94" class="st1" width="48.19" height="223.94"/>
	<rect x="34.02" y="127.56" class="st1" width="48.19" height="102.05"/>
	<rect x="34.02" y="36.85" class="st1" width="141.73" height="79.37"/>
	<rect x="187.09" y="36.85" class="st1" width="76.54" height="79.37"/>
	<rect x="274.96" y="36.85" class="st1" width="48.19" height="79.37"/>
	<rect x="334.49" y="36.85" class="st1" width="48.19" height="79.37"/>
	<rect x="476.22" y="331.65" class="st1" width="138.9" height="79.37"/>
	<rect x="708.66" y="328.82" class="st1" width="79.37" height="85.04"/>
	<rect x="708.66" y="232.44" class="st1" width="79.37" height="85.04"/>
	<rect x="708.66" y="138.9" class="st1" width="79.37" height="82.2"/>
	<rect x="739.84" y="36.85" class="st1" width="48.19" height="90.71"/>
	<rect x="646.3" y="36.85" class="st1" width="82.2" height="59.53"/>
	<rect x="306.14" y="181.42" class="st1" width="17.01" height="87.87"/>
</g>
<g id="Stairs" (click)="LogCords($event)">
	<rect x="447.87" y="252.28" class="st2" width="31.18" height="68.03"/>
	<rect x="595.28" y="422.36" class="st2" width="76.54" height="76.54"/>
	<rect x="130.39" y="413.86" class="st2" width="42.52" height="51.02"/>
	<rect x="130.39" y="371.34" class="st2" width="42.52" height="31.18"/>
	<rect x="394.02" y="195.59" class="st2" width="42.52" height="127.56"/>
</g>
<g id="Service" (click)="LogCords($event)">
	<rect x="504.57" y="36.85" class="st3" width="130.39" height="59.53"/>
	<rect x="742.68" y="462.05" class="st3" width="45.35" height="36.85"/>
	<rect x="728.5" y="425.2" class="st3" width="59.53" height="25.51"/>
	<rect x="130.39" y="325.98" class="st3" width="42.52" height="34.02"/>
	<rect x="130.39" y="280.63" class="st3" width="42.52" height="34.02"/>
	<rect x="394.02" y="36.85" class="st3" width="42.52" height="53.86"/>
</g>
<g id="Hall" class="st4" (click)="LogCords($event)">
	<rect x="87.87" y="121.89" class="st5" width="36.85" height="348.66"/>
	<rect x="87.87" y="121.89" class="st5" width="300.47" height="53.86"/>
	<rect x="394.02" y="96.38" class="st5" width="48.19" height="93.54"/>
	<rect x="445.04" y="31.18" class="st5" width="53.86" height="215.43"/>
	<rect x="493.23" y="102.05" class="st5" width="209.76" height="53.86"/>
	<rect x="685.98" y="104.88" class="st5" width="48.19" height="25.51"/>
	<rect x="490.39" y="155.91" class="st5" width="212.6" height="164.41"/>
	<rect x="620.79" y="291.97" class="st5" width="82.2" height="124.72"/>
	<rect x="677.48" y="419.53" class="st5" width="45.35" height="79.37"/>
	<rect x="722.83" y="462.05" class="st5" width="14.17" height="36.85"/>
</g>
<g id="Stroke" (click)="LogCords($event)">
	<line class="st6" x1="28.35" y1="28.35" x2="28.35" y2="566.93"/>
	<line class="st6" x1="31.18" y1="31.18" x2="796.54" y2="31.18"/>
	<line class="st6" x1="31.18" y1="564.09" x2="181.42" y2="564.09"/>
	<line class="st6" x1="178.58" y1="561.26" x2="178.58" y2="272.13"/>
	<line class="st6" x1="793.7" y1="34.02" x2="793.7" y2="507.4"/>
	<line class="st6" x1="181.42" y1="274.96" x2="391.18" y2="274.96"/>
	<line class="st6" x1="388.35" y1="277.8" x2="388.35" y2="328.82"/>
	<line class="st6" x1="391.18" y1="325.98" x2="473.39" y2="325.98"/>
	<line class="st6" x1="470.55" y1="328.82" x2="470.55" y2="419.53"/>
	<line class="st6" x1="473.39" y1="416.69" x2="592.44" y2="416.69"/>
	<line class="st6" x1="589.61" y1="419.53" x2="589.61" y2="507.4"/>
	<line class="st6" x1="592.44" y1="504.57" x2="790.87" y2="504.57"/>
	<line class="st6" x1="31.18" y1="121.89" x2="104.88" y2="121.89"/>
	<line class="st6" x1="119.06" y1="121.89" x2="184.25" y2="121.89"/>
	<line class="st6" x1="181.42" y1="34.02" x2="181.42" y2="121.89"/>
	<line class="st6" x1="198.43" y1="121.89" x2="297.64" y2="121.89"/>
	<line class="st6" x1="269.29" y1="34.02" x2="269.29" y2="121.89"/>
	<line class="st6" x1="311.81" y1="121.89" x2="348.66" y2="121.89"/>
	<line class="st6" x1="328.82" y1="121.89" x2="328.82" y2="34.02"/>
	<line class="st6" x1="362.83" y1="121.89" x2="391.18" y2="121.89"/>
	<line class="st6" x1="388.35" y1="119.06" x2="388.35" y2="34.02"/>
	<line class="st6" x1="104.88" y1="467.72" x2="104.88" y2="561.26"/>
	<line class="st6" x1="87.87" y1="470.55" x2="31.18" y2="470.55"/>
	<line class="st6" x1="121.89" y1="470.55" x2="175.75" y2="470.55"/>
	<line class="st6" x1="121.89" y1="408.19" x2="175.75" y2="408.19"/>
	<line class="st6" x1="121.89" y1="365.67" x2="178.58" y2="365.67"/>
	<line class="st6" x1="121.89" y1="320.31" x2="178.58" y2="320.31"/>
	<line class="st6" x1="121.89" y1="274.96" x2="178.58" y2="274.96"/>
	<line class="st6" x1="124.72" y1="368.5" x2="124.72" y2="391.18"/>
	<line class="st6" x1="124.72" y1="467.72" x2="124.72" y2="450.71"/>
	<line class="st6" x1="124.72" y1="411.02" x2="124.72" y2="436.54"/>
	<line class="st6" x1="124.72" y1="323.15" x2="124.72" y2="337.32"/>
	<line class="st6" x1="124.72" y1="362.83" x2="124.72" y2="351.5"/>
	<line class="st6" x1="124.72" y1="277.8" x2="124.72" y2="291.97"/>
	<line class="st6" x1="124.72" y1="317.48" x2="124.72" y2="306.14"/>
	<line class="st6" x1="87.87" y1="473.39" x2="87.87" y2="263.62"/>
	<line class="st6" x1="87.87" y1="229.61" x2="87.87" y2="249.45"/>
	<line class="st6" x1="31.18" y1="235.28" x2="85.04" y2="235.28"/>
	<line class="st6" x1="87.87" y1="124.72" x2="87.87" y2="215.43"/>
	<line class="st6" x1="124.72" y1="274.96" x2="124.72" y2="172.91"/>
	<line class="st6" x1="127.56" y1="175.75" x2="246.61" y2="175.75"/>
	<line class="st6" x1="260.79" y1="175.75" x2="277.8" y2="175.75"/>
	<line class="st6" x1="272.13" y1="178.58" x2="272.13" y2="272.13"/>
	<line class="st6" x1="291.97" y1="175.75" x2="306.14" y2="175.75"/>
	<line class="st6" x1="300.47" y1="178.58" x2="300.47" y2="272.13"/>
	<line class="st6" x1="320.31" y1="175.75" x2="337.32" y2="175.75"/>
	<line class="st6" x1="328.82" y1="178.58" x2="328.82" y2="272.13"/>
	<line class="st6" x1="790.87" y1="456.38" x2="720" y2="456.38"/>
	<line class="st6" x1="737.01" y1="459.21" x2="737.01" y2="487.56"/>
	<line class="st6" x1="722.83" y1="453.54" x2="722.83" y2="436.54"/>
	<line class="st6" x1="700.16" y1="419.53" x2="790.87" y2="419.53"/>
	<line class="st6" x1="702.99" y1="416.69" x2="702.99" y2="348.66"/>
	<line class="st6" x1="702.99" y1="334.49" x2="702.99" y2="252.28"/>
	<line class="st6" x1="705.83" y1="323.15" x2="793.7" y2="323.15"/>
	<line class="st6" x1="702.99" y1="238.11" x2="702.99" y2="221.1"/>
	<line class="st6" x1="705.83" y1="226.77" x2="793.7" y2="226.77"/>
	<line class="st6" x1="702.99" y1="206.93" x2="702.99" y2="130.39"/>
	<line class="st6" x1="705.83" y1="133.23" x2="790.87" y2="133.23"/>
	<line class="st6" x1="734.17" y1="130.39" x2="734.17" y2="119.06"/>
	<line class="st6" x1="734.17" y1="104.88" x2="734.17" y2="34.02"/>
	<line class="st6" x1="731.34" y1="102.05" x2="722.83" y2="102.05"/>
	<line class="st6" x1="722.83" y1="102.05" x2="657.64" y2="102.05"/>
	<line class="st6" x1="640.63" y1="104.88" x2="640.63" y2="34.02"/>
	<line class="st6" x1="640.63" y1="102.05" x2="496.06" y2="102.05"/>
	<line class="st6" x1="498.9" y1="99.21" x2="498.9" y2="48.19"/>
	<line class="st6" x1="357.17" y1="274.96" x2="357.17" y2="172.91"/>
	<line class="st6" x1="351.5" y1="175.75" x2="362.83" y2="175.75"/>
	<line class="st6" x1="377.01" y1="175.75" x2="391.18" y2="175.75"/>
	<line class="st6" x1="388.35" y1="178.58" x2="388.35" y2="274.96"/>
	<line class="st6" x1="442.2" y1="172.91" x2="442.2" y2="325.98"/>
	<line class="st6" x1="391.18" y1="189.92" x2="411.02" y2="189.92"/>
	<line class="st6" x1="425.2" y1="189.92" x2="439.37" y2="189.92"/>
	<line class="st6" x1="442.2" y1="31.18" x2="442.2" y2="147.4"/>
	<line class="st6" x1="388.35" y1="121.89" x2="388.35" y2="147.4"/>
	<line class="st6" x1="388.35" y1="96.38" x2="405.35" y2="96.38"/>
	<line class="st6" x1="419.53" y1="96.38" x2="439.37" y2="96.38"/>
	<line class="st6" x1="484.72" y1="252.28" x2="484.72" y2="252.28"/>
	<line class="st6" x1="484.72" y1="249.45" x2="484.72" y2="328.82"/>
	<line class="st6" x1="473.39" y1="325.98" x2="623.62" y2="325.98"/>
	<line class="st6" x1="620.79" y1="328.82" x2="620.79" y2="413.86"/>
	<line class="st6" x1="586.77" y1="416.69" x2="623.62" y2="416.69"/>
	<line class="st6" x1="623.62" y1="416.69" x2="680.31" y2="416.69"/>
	<line class="st6" x1="677.48" y1="413.86" x2="677.48" y2="487.56"/>
</g>
</svg>
